# xmcd
#
# Track frame offsets: 
#        150
#        20993
#        29171
#        47296
#        61632
#        75425
#        91827
#        104554
#        126594
#        142212
#        158066
#        173475
#        188577
#        206181
#
# Disc length: 3001 seconds
#
# Revision: 0
# Processed by: cddbd v1.5.2PL0 Copyright (c) Steve Scherf et al.
# Submitted via: ExactAudioCopyFreeDBPlugin 1.0
#
DISCID=be0bb70e
DTITLE=The Bendegos - Forrest Lee Jr. - The Bendegos
DYEAR=2008
DGENRE=Country
TTITLE0=Fried Chicken
TTITLE1=Nameless Shuffle
TTITLE2=Top Loader
TTITLE3=Telecasting The Blues
TTITLE4=Schizophrenic Cowboy
TTITLE5=The Delta Is A Mystery
TTITLE6=Swamp Ass
TTITLE7=Perfect Storm
TTITLE8=Clawdaddy
TTITLE9=Flirtin With Radar
TTITLE10=Summer Nights
TTITLE11=Shenandoah
TTITLE12=Green Machine
TTITLE13=Crossing Over
EXTD=
EXTT0=
EXTT1=
EXTT2=
EXTT3=
EXTT4=
EXTT5=
EXTT6=
EXTT7=
EXTT8=
EXTT9=
EXTT10=
EXTT11=
EXTT12=
EXTT13=
PLAYORDER=
